<?xml version="1.0" standalone="no"?>
<!DOCTYPE svg PUBLIC "-//W3C//DTD SVG 20010904//EN"
 "http://www.w3.org/TR/2001/REC-SVG-20010904/DTD/svg10.dtd">
<svg version="1.0" xmlns="http://www.w3.org/2000/svg"
 width="120.000000pt" height="120.000000pt" viewBox="0 0 120.000000 120.000000"
 preserveAspectRatio="xMidYMid meet">
<metadata>
Created by potrace 1.11, written by Peter Selinger 2001-2013
</metadata>
<g transform="translate(0.000000,120.000000) scale(0.100000,-0.100000)"
fill="#000000" stroke="none">
<path d="M258 1088 c-8 -22 7 -61 23 -64 98 -14 168 -95 169 -192 0 -86 -56
-161 -139 -186 -25 -7 -47 -12 -49 -11 -2 2 -4 48 -5 102 l-2 98 -127 1 -128
0 0 -33 c0 -28 4 -33 23 -33 29 0 90 -38 118 -74 34 -43 37 -128 7 -181 -25
-42 -88 -85 -126 -85 -20 0 -23 -4 -20 -32 l3 -33 125 0 125 0 2 90 c1 50 2
93 2 98 1 12 36 8 74 -8 147 -61 158 -271 17 -346 -19 -10 -47 -21 -61 -24
-27 -5 -38 -26 -31 -58 3 -16 18 -18 181 -17 220 2 311 17 411 67 131 66 257
212 329 382 l22 53 -36 72 c-121 234 -302 383 -505 417 -87 14 -397 12 -402
-3z"/>
</g>
</svg>
